<svg width="278" height="214" viewBox="0 0 278 214" fill="none" xmlns="http://www.w3.org/2000/svg">
<rect width="278" height="213.846" fill="url(#paint0_linear_67_104)"/>
<path d="M139.344 52.6737C136.816 55.5574 135.275 59.3296 135.275 63.4725C135.424 72.5679 136.534 81.6524 136.631 90.7286C136.832 99.2053 134.304 107.164 131.228 114.932C130.202 117.077 129.095 119.176 127.986 121.28L124.731 120.62C121.793 120.032 119.883 117.162 120.472 114.21C120.984 111.629 123.247 109.822 125.77 109.822L126.958 109.95L124.308 87.7087C123.442 77.8147 118.359 69.12 110.88 63.478C109.594 62.5077 108.229 61.6191 106.811 60.8369V139.798H124.953C126.309 147.184 130.362 153.644 136.059 158.059C137.413 158.997 138.549 160.234 139.366 161.679C140.18 160.234 141.316 158.997 142.673 158.059C148.369 153.633 152.422 147.187 153.778 139.798H171.921V60.8369C170.502 61.6191 169.138 62.5077 167.852 63.478C160.365 69.1282 155.292 77.8147 154.424 87.7087L151.774 109.95L152.962 109.822C155.485 109.832 157.747 111.626 158.26 114.21C158.846 117.162 156.936 120.029 154.001 120.62L150.746 121.28C149.636 119.179 148.527 117.08 147.504 114.932C144.425 107.17 141.897 99.2107 142.097 90.7286C142.195 81.6251 143.305 72.5488 143.454 63.4725C143.454 59.3296 141.913 55.5683 139.385 52.6737H139.344ZM112.217 72.2163C115.727 76.3565 118.085 81.5106 118.782 87.1881L120.952 105.531C118.171 106.921 116.069 109.473 115.271 112.561H112.198V72.2217L112.217 72.2163ZM166.471 72.2163V112.555H163.398C162.606 109.47 160.498 106.919 157.717 105.526L159.887 87.1826C160.59 81.5106 162.947 76.351 166.452 72.2081L166.471 72.2163ZM139.344 109.094C140.801 113.883 142.805 118.443 145.298 122.662C142.928 123.384 140.866 124.791 139.344 126.685C137.822 124.791 135.761 123.387 133.39 122.659C135.883 118.432 137.887 113.883 139.344 109.094ZM112.217 118.017H115.29C116.259 121.781 119.183 124.752 122.886 125.791L125.493 126.388C124.796 128.928 124.413 131.594 124.413 134.374H112.206V118.02L112.217 118.017ZM163.406 118.017H166.479V134.371H154.272C154.272 131.607 153.89 128.928 153.192 126.385L155.799 125.788C159.516 124.75 162.437 121.776 163.395 118.015L163.406 118.017ZM130.799 127.639C134.09 128.105 136.626 130.937 136.626 134.368H129.844C129.844 132.033 130.189 129.778 130.799 127.639ZM147.881 127.639C148.491 129.778 148.836 132.027 148.836 134.368H142.054C142.054 130.931 144.59 128.105 147.881 127.639ZM130.465 139.822H136.631V151.297C133.647 148.149 131.477 144.211 130.465 139.822ZM142.057 139.822H148.223C147.225 144.211 145.049 148.154 142.057 151.297V139.822Z" fill="#FFD500"/>
<defs>
<linearGradient id="paint0_linear_67_104" x1="139" y1="0" x2="139" y2="213.846" gradientUnits="userSpaceOnUse">
<stop stop-color="#1C447E"/>
<stop offset="0.979167" stop-color="#165EA0"/>
</linearGradient>
</defs>
</svg>
