<svg xmlns="http://www.w3.org/2000/svg" width="92" height="61" viewBox="0 0 92 61"><g><g><g><g><path fill="#efba4b" d="M18.332 60.614V.121h55.353v60.493z"/></g><g><path fill="#2b5244" d="M18.332 60.626v-2.24h55.357v2.24z"/></g><g><path fill="#2b5244" d="M14.574 21.051c0 1.95.356 2.395 1.6 2.476.097.458.137.926.12 1.394a52.4 52.4 0 0 0-3.057-.085c-1.105 0-2.401.024-3.29.077a5.904 5.904 0 0 1 .14-1.394c1.269-.081 1.601-.527 1.601-2.476v-4.68c-1.829 0-4.578 0-6.435.135v4.553c0 1.95.352 2.395 1.6 2.476.097.458.137.926.12 1.394a52.026 52.026 0 0 0-3.06-.085c-1.114 0-2.402.024-3.29.077a5.904 5.904 0 0 1 .14-1.394c1.268-.081 1.6-.527 1.6-2.476V10.81c0-1.924-.328-2.346-1.6-2.45a6.071 6.071 0 0 1-.14-1.395c.844.053 2.184.077 3.201.077s2.21-.024 3.15-.077c.03.47-.018.941-.144 1.394-1.245.105-1.601.527-1.601 2.451v4.214h6.455v-4.214c0-1.924-.328-2.346-1.6-2.45a6.072 6.072 0 0 1-.14-1.395c.848.053 2.184.077 3.201.077s2.21-.024 3.15-.077c.03.47-.018.94-.14 1.394-1.245.105-1.601.527-1.601 2.451z"/></g><g><path fill="#2b5244" d="M29.394 18.102h-4.919l1.36-4.003a52.01 52.01 0 0 0 .953-3.132c.3 1.065.66 2.11 1.08 3.132zm6.343 6.819a5.28 5.28 0 0 0-.164-1.394c-.704-.105-1.009-.527-1.877-2.686L28.237 6.883a4.03 4.03 0 0 0-1.2.126l-4.875 13.75c-.753 2.055-1.057 2.61-1.881 2.792a4.389 4.389 0 0 0-.188 1.37c.444-.025 1.272-.077 2.045-.077.772 0 1.833.024 2.373.077.004-.472-.06-.941-.188-1.394-1.2-.15-1.433-.871-.849-2.58l.477-1.366c1.877-.106 4.038-.134 5.967-.134l.772 2.054c.585 1.47.42 1.84-.8 2.026-.137.45-.192.923-.164 1.394.584-.053 2.301-.077 3.053-.077.753 0 2.35.024 2.958.077z"/></g><g><path fill="#2b5244" d="M47.655 18.102h-4.93l1.36-4.003c.353-1.025.657-2.001.965-3.132a27.62 27.62 0 0 0 1.08 3.132zM54 24.921zm0 0a5.28 5.28 0 0 0-.164-1.402c-.705-.105-1.013-.527-1.881-2.686L46.483 6.875a4.059 4.059 0 0 0-1.177.134L40.42 20.764c-.749 2.054-1.077 2.609-1.877 2.791a4.39 4.39 0 0 0-.189 1.37c.44-.025 1.27-.077 2.042-.077.772 0 1.832.024 2.373.077a4.823 4.823 0 0 0-.188-1.394c-1.197-.15-1.433-.871-.845-2.58l.468-1.37c1.882-.106 4.043-.134 5.968-.134l.776 2.054c.588 1.47.424 1.84-.8 2.026-.137.45-.192.923-.164 1.394.588-.053 2.3-.077 3.053-.077.753 0 2.35.024 2.962.077z"/></g><g><path fill="#2b5244" d="M71.92 23.527a4.78 4.78 0 0 1-.164 1.317c-1.265-.03-2.53.05-3.782.235-1.128-1.001-2.093-2.431-3.43-5.818-.8-2.107-1.48-3.002-2.961-3.002v4.792c0 1.95.352 2.395 1.62 2.476.095.458.134.926.117 1.394a53.787 53.787 0 0 0-3.078-.077 62.14 62.14 0 0 0-3.286.077c-.01-.469.037-.937.14-1.394 1.27-.081 1.601-.527 1.601-2.476V10.81c0-1.924-.328-2.346-1.6-2.45a5.857 5.857 0 0 1-.14-1.395c.844.053 2.185.077 3.201.077 1.017 0 2.205-.024 3.146-.077.03.47-.018.94-.14 1.394-1.245.105-1.601.527-1.601 2.451v4.027c1.36 0 2.089-.603 3.602-3.318 2.209-4.027 2.677-4.659 4.438-4.659.428.014.854.075 1.269.182a26.562 26.562 0 0 0 .12 4.084 3.958 3.958 0 0 1-1.48.235c-.261-1.657-.565-2.025-1.057-2.025-.613 0-.989.632-2.186 2.791-1.196 2.16-1.645 2.686-2.233 2.868 1.577.158 2.137.738 3.054 2.792 1.917 4.372 2.853 5.636 4.83 5.74z"/></g><g><path fill="#2b5244" d="M91.379 6.964c.001.469-.046.936-.14 1.394-.94.24-1.41 1.293-2.186 2.978-1.62 3.476-2.537 5.344-3.43 7.106-1.76 3.505-2.325 4.822-2.8 6.584-1.147-.14-2.3-.201-3.455-.182a4.817 4.817 0 0 1-.144-1.317c1.625-.134 2.634-.948 4.182-3.845-1.6-3.002-3.265-6.11-4.602-8.48-1.337-2.37-1.737-2.71-2.561-2.836a5.688 5.688 0 0 1-.14-1.393c.656.052 2.185.077 3.121.077.937 0 2.093-.025 3.15-.077.004.468-.043.935-.14 1.393-1.409.134-1.365.503-.448 2.107 1.244 2.16 2.233 4.031 3.337 6.134.96-1.815 1.81-3.683 2.606-5.607.752-1.686.564-2.476-.773-2.634a5.264 5.264 0 0 1-.144-1.393c.637.052 1.433.077 2.185.077.753 0 1.77-.041 2.382-.086z"/></g><g><path fill="#2b5244" d="M20.813 40.636h.344v1.512h1.745v-1.512h.34v3.404h-.34V42.5h-1.745v1.532h-.344z"/></g><g><path fill="#2b5244" d="M25.512 43.108a.705.705 0 0 1-.228.497.687.687 0 0 1-.513.18.508.508 0 0 1-.39-.127.521.521 0 0 1-.174-.376c0-.312.252-.515.652-.515.222 0 .442.036.653.106v.235zm-1.396.759c.156.15.364.232.58.225a.937.937 0 0 0 .8-.43v.378h.328v-1.536a1.083 1.083 0 0 0-.232-.741.934.934 0 0 0-.72-.276c-.281.003-.556.077-.801.215l.1.304c.207-.116.44-.177.676-.178a.596.596 0 0 1 .493.178c.13.133.19.318.168.502v.077a2.054 2.054 0 0 0-.68-.105c-.557 0-.957.271-.957.81.002.218.09.426.245.577z"/></g><g><path fill="#2b5244" d="M28.465 44.032H26.54V41.52h.332v2.18h1.253v-2.18h.332v2.18h.336l-.052.955h-.276z"/></g><g><path fill="#2b5244" d="M29.282 41.52h.332v2.512h-.332zm-.024-.965h.4v.406h-.4z"/></g><g><path fill="#2b5244" d="M32.04 43.435a.877.877 0 0 1-.605.317.889.889 0 0 1-.614-.314.91.91 0 0 1-.21-.662.899.899 0 0 1 .196-.66c.15-.185.368-.3.604-.32.238.018.46.132.615.315a.919.919 0 0 1 .213.665.899.899 0 0 1-.2.659zm-1.49.24c.217.247.523.395.849.413a1.18 1.18 0 0 0 1.177-1.141 1.182 1.182 0 0 0-1.087-1.23 1.177 1.177 0 0 0-1.25 1.059c-.02.33.093.654.31.9z"/></g><g><path fill="#2b5244" d="M33.176 41.52h.332V42.6h1.285V41.52h.332v2.512h-.332v-1.098h-1.285v1.098h-.332z"/></g><g><path fill="#2b5244" d="M37.112 43.607a.687.687 0 0 1-.514.177.508.508 0 0 1-.388-.128.521.521 0 0 1-.173-.374c0-.312.252-.515.653-.515.221 0 .441.036.652.106v.235a.704.704 0 0 1-.23.499zm-1.411-.317c.002.218.09.426.246.577.155.15.363.232.578.225a.941.941 0 0 0 .8-.43v.378h.33v-1.536a1.099 1.099 0 0 0-.233-.741.938.938 0 0 0-.724-.276c-.28.004-.556.078-.8.215l.1.304c.208-.115.442-.176.68-.178a.6.6 0 0 1 .49.18c.13.132.191.316.17.5v.077a2.061 2.061 0 0 0-.684-.105c-.553 0-.953.271-.953.81z"/></g><g><path fill="#2b5244" d="M37.994 44.032l.036-.32a.862.862 0 0 0 .16.032c.269 0 .493-.13.493-2.026v-.206h1.6v2.511h-.332v-2.171H39v.06c0 1.957-.316 2.16-.737 2.16a1.428 1.428 0 0 1-.268-.04z"/></g><g><path fill="#2b5244" d="M41.34 43.7v-.92h.592c.34 0 .549.13.549.445 0 .316-.204.474-.537.474zm-.332.323h.964a.767.767 0 0 0 .604-.21.787.787 0 0 0 .24-.6c0-.53-.4-.753-.88-.753h-.596v-.94h-.332z"/></g><g><path fill="#2b5244" d="M43.33 41.52h.331V42.6h1.289V41.52h.332v2.512h-.332v-1.098h-1.289v1.098h-.332z"/></g><g><path fill="#2b5244" d="M47.495 43.108a.704.704 0 0 1-.232.502.687.687 0 0 1-.52.174.508.508 0 0 1-.388-.128.521.521 0 0 1-.172-.374c0-.312.252-.515.652-.515.222 0 .442.036.652.106v.235zm-1.649.182c.003.218.091.426.246.577.155.15.364.232.579.225a.941.941 0 0 0 .8-.43v.378h.328v-1.536a1.083 1.083 0 0 0-.232-.741.934.934 0 0 0-.72-.276c-.28.003-.555.077-.8.215l.096.304c.209-.115.442-.176.68-.178a.596.596 0 0 1 .493.178c.129.133.19.318.167.502v.077a2.054 2.054 0 0 0-.68-.105c-.556 0-.957.271-.957.81z"/></g><g><path fill="#2b5244" d="M51.29 43.108a.705.705 0 0 1-.229.497.687.687 0 0 1-.512.18.508.508 0 0 1-.39-.127.521.521 0 0 1-.174-.376c0-.312.252-.515.652-.515.222 0 .442.036.652.106zm-1.642.182c.002.218.091.426.246.577.155.15.364.232.579.225a.937.937 0 0 0 .8-.43v.378h.328v-1.536a1.083 1.083 0 0 0-.232-.741.934.934 0 0 0-.72-.276c-.28.003-.555.077-.8.215l.1.304c.207-.116.44-.177.676-.178a.596.596 0 0 1 .493.178c.129.133.19.318.167.502v.077a2.054 2.054 0 0 0-.68-.105c-.556 0-.957.271-.957.81z"/></g><g><path fill="#2b5244" d="M52.178 42.776a1.235 1.235 0 0 1 1.144-1.313c.353-.002.685.165.897.45l-.212.25a.888.888 0 0 0-1.051-.093c-.334.202-.5.6-.412.983a.9.9 0 0 0 .798.699.87.87 0 0 0 .673-.377l.22.227a1.105 1.105 0 0 1-.913.486 1.195 1.195 0 0 1-.848-.41 1.225 1.225 0 0 1-.296-.902z"/></g><g><path fill="#2b5244" d="M56.45 43.436a.877.877 0 0 1-.606.316.889.889 0 0 1-.614-.314.91.91 0 0 1-.21-.662.899.899 0 0 1 .196-.66c.15-.185.368-.3.604-.32.239.017.461.13.617.314a.919.919 0 0 1 .215.666.899.899 0 0 1-.201.66zm-1.799-.66a1.238 1.238 0 0 0 1.157 1.312 1.18 1.18 0 0 0 1.18-1.138 1.182 1.182 0 0 0-1.085-1.233 1.177 1.177 0 0 0-1.252 1.059z"/></g><g><path fill="#2b5244" d="M59.498 44.032h-1.925V41.52h.332v2.18h1.253v-2.18h.332v2.18h.336l-.052.955h-.276z"/></g><g><path fill="#2b5244" d="M60.314 41.52h.34v2.512h-.332zm-.024-.965h.364v.406h-.38z"/></g><g><path fill="#2b5244" d="M62.892 43.108a.704.704 0 0 1-.23.499.687.687 0 0 1-.515.177.508.508 0 0 1-.388-.128.521.521 0 0 1-.172-.374c0-.312.252-.515.652-.515.222 0 .442.036.653.106zm-1.641.182c.002.218.09.426.245.577.155.15.364.232.58.225a.941.941 0 0 0 .8-.43v.378h.328v-1.536a1.082 1.082 0 0 0-.236-.741.922.922 0 0 0-.72-.276c-.281.004-.556.078-.801.215l.1.304c.209-.115.442-.176.68-.178a.6.6 0 0 1 .492.18c.128.132.19.316.169.5v.077a2.082 2.082 0 0 0-.685-.105c-.552 0-.952.271-.952.81z"/></g><g><path fill="#2b5244" d="M65.857 44.032h-1.929V41.52h.328v2.18h1.253v-2.18h.348v2.18h.336l-.052.955h-.284z"/></g><g><path fill="#2b5244" d="M66.678 41.52h.332v2.512h-.352zm-.02-.965h.4v.406h-.4z"/></g><g><path fill="#2b5244" d="M68.527 42.804a.476.476 0 0 1-.377-.12.489.489 0 0 1-.16-.366c0-.284.196-.466.529-.466h.7v.956zm-.945 1.236h.4l.62-.916h.617v.916h.332v-2.512h-1.048a.774.774 0 0 0-.827.655.782.782 0 0 0 .582.884z"/></g><g><path fill="#2b5244" d="M22.234 48.78a.705.705 0 0 1-.23.5.687.687 0 0 1-.515.176.508.508 0 0 1-.39-.126.521.521 0 0 1-.174-.376c0-.312.252-.514.652-.514.222 0 .442.035.653.105v.235zm-1.392.766c.16.152.373.23.591.218a.937.937 0 0 0 .8-.43v.378h.309v-1.536a1.083 1.083 0 0 0-.232-.741.93.93 0 0 0-.72-.276c-.28.003-.556.077-.8.215l.1.304c.207-.115.439-.176.675-.178a.596.596 0 0 1 .494.178c.128.133.19.318.167.502v.077c-.22-.073-.45-.109-.68-.105-.557 0-.957.271-.957.81a.815.815 0 0 0 .253.584z"/></g><g><path fill="#2b5244" d="M24.371 49.42a.985.985 0 0 1-.812-.974c0-.482.343-.893.812-.975a.857.857 0 0 1 .607.312.879.879 0 0 1 .193.66c0 .616-.352.977-.8.977zm-1.113 1.045h.333v-1.26a.987.987 0 0 0 .856.535c.54 0 1.065-.474 1.065-1.309 0-.834-.529-1.312-1.065-1.312a.992.992 0 0 0-.856.575v-.502h-.333z"/></g><g><path fill="#2b5244" d="M27.973 48.476a.87.87 0 0 1-.205.64.849.849 0 0 1-.596.296.865.865 0 0 1-.595-.306.886.886 0 0 1-.205-.642.87.87 0 0 1 .202-.645.849.849 0 0 1 .598-.3c.23.018.444.128.594.305.15.177.225.407.207.64zm-1.93-.142c0 .888.453 1.426 1.137 1.414.323-.014.626-.16.84-.403.216-.243.326-.563.305-.89a1.174 1.174 0 0 0-1.068-1.247.99.99 0 0 0-.925.543.841.841 0 0 1 .652-.896l1.201-.332-.064-.316-1.245.328c-.776.211-.832.989-.832 1.8z"/></g><g><path fill="#2b5244" d="M28.95 47.192h.332v2.512h-.333zm-.025-.965h.4v.406h-.4z"/></g><g><path fill="#2b5244" d="M30.594 47.524h-.8v-.328h1.933v.328h-.8v2.184h-.337z"/></g><g><path fill="#2b5244" d="M33.324 49.42a.985.985 0 0 1-.812-.974c0-.482.343-.893.812-.975a.857.857 0 0 1 .607.312.878.878 0 0 1 .193.66c0 .616-.352.977-.8.977zm-1.113 1.045h.332v-1.26a.987.987 0 0 0 .857.535c.54 0 1.064-.474 1.064-1.309 0-.834-.528-1.312-1.064-1.312a1 1 0 0 0-.857.575v-.502h-.332z"/></g><g><path fill="#2b5244" d="M36.321 49.278a.687.687 0 0 1-.512.178.508.508 0 0 1-.388-.128.521.521 0 0 1-.172-.374c0-.312.248-.514.648-.514.222 0 .442.035.652.105v.235a.705.705 0 0 1-.228.498zm-1.412-.316c.002.218.09.426.245.577.155.15.364.232.579.225a.937.937 0 0 0 .8-.43v.378h.329v-1.536a1.083 1.083 0 0 0-.232-.741.93.93 0 0 0-.72-.276c-.281.004-.556.078-.801.215l.1.304c.207-.115.44-.176.676-.178a.596.596 0 0 1 .493.178c.129.133.19.318.167.502v.077c-.219-.073-.449-.109-.68-.105-.556 0-.956.271-.956.81z"/></g><g><path fill="#2b5244" d="M38.21 48.265l-.868-1.073h.4l1.137 1.454v-1.454h.332v1.454l1.136-1.454h.4l-.868 1.073.917 1.439h-.4l-.745-1.171-.452.559v.612h-.332v-.612l-.453-.56-.744 1.172h-.4z"/></g><g><path fill="#2b5244" d="M41.252 47.192h.332v1.081h1.289v-1.081h.332v2.512h-.332v-1.098h-1.289v1.098h-.332z"/></g><g><path fill="#2b5244" d="M43.945 47.192h.333v1.985l1.328-1.985h.32v2.512h-.332v-1.99l-1.328 1.99h-.32z"/></g><g><path fill="#2b5244" d="M47.343 48.423l-.84-1.215h.4l.66.972.66-.972h.373l-.849 1.215.88 1.289h-.4l-.688-1.025-.696 1.025h-.372z"/></g><g><path fill="#2b5244" d="M50.445 47.192h.332v1.446l1.22-1.446h.4l-.932 1.085.957 1.427h-.4l-.8-1.155-.469.547v.608h-.332z"/></g><g><path fill="#2b5244" d="M52.962 48.298c.044-.486.284-.847.725-.847.44 0 .672.389.712.847zm-.34.15c-.026.328.08.652.294.9.214.247.518.396.843.412.364.006.708-.17.92-.47l-.208-.21a.885.885 0 0 1-.704.356.796.796 0 0 1-.576-.247.816.816 0 0 1-.225-.591h1.77v-.13c0-.737-.425-1.333-1.041-1.333-.617 0-1.073.583-1.073 1.313z"/></g><g><path fill="#2b5244" d="M57.233 48.444c0 .615-.357.976-.8.976a.985.985 0 0 1-.813-.974c0-.482.343-.893.812-.975a.857.857 0 0 1 .607.312.879.879 0 0 1 .193.66zm-1.914 2.038h.333v-1.26a.983.983 0 0 0 .852.534c.54 0 1.069-.474 1.069-1.308 0-.835-.533-1.313-1.069-1.313a.992.992 0 0 0-.852.56v-.503h-.333z"/></g><g><path fill="#2b5244" d="M57.969 50.36l.112-.296a.658.658 0 0 0 .348.093c.2 0 .324-.117.46-.474l-1.016-2.5h.38l.8 2.095.717-2.094h.352l-.936 2.593c-.189.518-.4.709-.74.709a.94.94 0 0 1-.477-.126z"/></g><g><path fill="#2b5244" d="M63.332 48.448c0 .539-.296.976-.757.976-.46 0-.76-.437-.76-.976 0-.54.288-.977.752-.977.465 0 .765.434.765.977zm-1.853.15c.001.615.481 1.12 1.088 1.146.32-.024.617-.176.825-.422.208-.247.31-.567.284-.89 0-.714-.428-1.313-1.1-1.313a1.165 1.165 0 0 0-1.093 1.167h-.496v-1.094h-.333v2.512h.328v-1.106z"/></g><g><path fill="#2b5244" d="M65.693 48.666a1.622 1.622 0 0 1-.748.231.676.676 0 0 1-.543-.201.694.694 0 0 1-.194-.552v-.952h.332v.9a.433.433 0 0 0 .114.344c.087.093.21.141.335.133.253-.005.499-.089.704-.239v-1.138h.332v2.512h-.332z"/></g><g><path fill="#2b5244" d="M66.766 47.192h.332v1.985l1.328-1.985h.325v2.512h-.333v-1.99l-1.332 1.99h-.32z"/></g><g><path fill="#2b5244" d="M70.163 48.423l-.84-1.215h.4l.66.972.66-.972h.373l-.848 1.215.884 1.289h-.4l-.693-1.025-.696 1.025h-.372z"/></g><g><path fill="#2b5244" d="M20.75 55.29l.135-.303c.12.075.26.11.4.101.204 0 .429-.13.605-.51l-1.35-2.597h.401l1.113 2.22.956-2.22h.368l-1.2 2.686c-.244.559-.564.774-.92.774a.956.956 0 0 1-.509-.15z"/></g><g><path fill="#2b5244" d="M23.647 52.864h.332v1.446l1.224-1.446h.4l-.932 1.086.957 1.426h-.4l-.801-1.155-.472.547v.608h-.332z"/></g><g><path fill="#2b5244" d="M27.209 55.092a.985.985 0 0 1-.812-.974c0-.482.343-.893.812-.975a.857.857 0 0 1 .607.312.879.879 0 0 1 .193.66c0 .617-.356.977-.8.977zm-1.113 1.045h.332v-1.26a.983.983 0 0 0 .853.535c.54 0 1.068-.474 1.068-1.308 0-.835-.532-1.313-1.068-1.313a.992.992 0 0 0-.853.575v-.502h-.332z"/></g><g><path fill="#2b5244" d="M30.205 54.951a.687.687 0 0 1-.515.178.508.508 0 0 1-.388-.129.521.521 0 0 1-.172-.374c0-.312.252-.514.652-.514.221 0 .442.035.652.105v.235a.705.705 0 0 1-.23.5zm-1.412-.317c.002.218.091.426.246.577.155.15.364.232.579.226a.941.941 0 0 0 .8-.43v.377h.328v-1.536a1.099 1.099 0 0 0-.232-.741.938.938 0 0 0-.724-.276c-.28.004-.555.078-.8.215l.1.304c.208-.115.442-.176.68-.178a.6.6 0 0 1 .491.18c.129.132.19.316.17.5v.077a2.063 2.063 0 0 0-.685-.105c-.552 0-.953.271-.953.81z"/></g><g><path fill="#2b5244" d="M31.839 52.021h.4v.462h-.4zm-.352.843h.352v2.512h-.332zm-.4-.843h.4v.462h-.4z"/></g><g><path fill="#2b5244" d="M32.595 52.864h.333v1.082h1.288v-1.082h.332v2.512h-.332v-1.098h-1.288v1.098h-.333z"/></g><g><path fill="#2b5244" d="M35.289 52.864h.332v1.985l1.329-1.985h.324v2.512h-.332v-1.99l-1.333 1.99h-.32z"/></g></g></g></g></svg>