<?xml version="1.0" encoding="utf-8"?>
<!-- Generator: Adobe Illustrator 24.0.0, SVG Export Plug-In . SVG Version: 6.00 Build 0)  -->
<svg version="1.1" id="Слой_1" xmlns="http://www.w3.org/2000/svg" xmlns:xlink="http://www.w3.org/1999/xlink" x="0px" y="0px"
	 viewBox="0 0 120 79" style="enable-background:new 0 0 120 79;" xml:space="preserve">
<style type="text/css">
	.st0{fill:#898989;}
	.st1{fill:#FFFFFF;}
</style>
<g>
	<path class="st0" d="M23.3,78.9V0.4H96v78.5H23.3z"/>
</g>
<g>
	<path class="st1" d="M23.3,78.9V76H96v2.9H23.3z"/>
</g>
<g>
	<path class="st1" d="M18.3,27.6c0,2.5,0.5,3.1,2.1,3.2c0.1,0.6,0.2,1.2,0.2,1.8c-1.3-0.1-2.7-0.1-4-0.1c-1.4,0-3.2,0-4.3,0.1
		c0-0.6,0.1-1.2,0.2-1.8c1.7-0.1,2.1-0.7,2.1-3.2v-6.1c-2.4,0-6,0-8.5,0.2v5.9c0,2.5,0.5,3.1,2.1,3.2c0.1,0.6,0.2,1.2,0.2,1.8
		c-1.1-0.1-2.6-0.1-4-0.1s-3.2,0-4.3,0.1c0-0.6,0.1-1.2,0.2-1.8c1.7-0.1,2.1-0.7,2.1-3.2V14.3c0-2.5-0.4-3-2.1-3.2
		C0.1,10.5,0,9.9,0,9.3c1.1,0.1,2.9,0.1,4.2,0.1c1.4,0,2.8,0,4.1-0.1c0,0.6,0,1.2-0.2,1.8c-1.6,0.1-2.1,0.7-2.1,3.2v5.5h8.5v-5.5
		c0-2.5-0.4-3-2.1-3.2c-0.1-0.6-0.2-1.2-0.2-1.8c1.1,0.1,2.9,0.1,4.2,0.1s2.9,0,4.1-0.1c0,0.6,0,1.2-0.2,1.8
		c-1.6,0.1-2.1,0.7-2.1,3.2L18.3,27.6z"/>
</g>
<g>
	<path class="st1" d="M37.8,23.7h-6.5l1.8-5.2c0.5-1.3,0.9-2.7,1.3-4.1c0.4,1.4,0.9,2.7,1.4,4.1L37.8,23.7z M46.1,32.6
		c0-0.6-0.1-1.2-0.2-1.8c-0.9-0.1-1.3-0.7-2.5-3.5L36.3,9.2c-0.5,0-1.1,0-1.6,0.2l-6.4,17.8c-1,2.7-1.4,3.4-2.5,3.6
		c-0.2,0.6-0.3,1.2-0.2,1.8c0.6,0,1.7-0.1,2.7-0.1s2.4,0,3.1,0.1c0-0.6-0.1-1.2-0.2-1.8c-1.6-0.2-1.9-1.1-1.1-3.4l0.6-1.8
		c2.5-0.1,5.3-0.2,7.8-0.2l1,2.7c0.8,1.9,0.6,2.4-1.1,2.6c-0.2,0.6-0.3,1.2-0.2,1.8c0.8-0.1,3-0.1,4-0.1
		C43.2,32.5,45.3,32.5,46.1,32.6z"/>
</g>
<g>
	<path class="st1" d="M61.8,23.7h-6.5l1.8-5.2c0.5-1.3,0.9-2.6,1.3-4.1c0.4,1.4,0.9,2.7,1.4,4.1L61.8,23.7z M70.1,32.6
		c0-0.6-0.1-1.2-0.2-1.8c-0.9-0.1-1.3-0.7-2.5-3.5L60.2,9.2c-0.5,0-1,0-1.5,0.2l-6.4,17.9c-1,2.7-1.4,3.4-2.5,3.6
		c-0.2,0.6-0.3,1.2-0.2,1.8c0.6,0,1.7-0.1,2.7-0.1s2.4,0,3.1,0.1c0-0.6-0.1-1.2-0.2-1.8c-1.6-0.2-1.9-1.1-1.1-3.4l0.6-1.8
		c2.5-0.1,5.3-0.2,7.8-0.2l1,2.7c0.8,1.9,0.6,2.4-1.1,2.6c-0.2,0.6-0.3,1.2-0.2,1.8c0.8-0.1,3-0.1,4-0.1S69.3,32.5,70.1,32.6
		L70.1,32.6z"/>
</g>
<g>
	<path class="st1" d="M93.7,30.8c0,0.6-0.1,1.2-0.2,1.7c-1.7,0-3.3,0.1-5,0.3c-1.5-1.3-2.8-3.2-4.5-7.5c-1.1-2.7-1.9-3.9-3.9-3.9
		v6.2c0,2.5,0.5,3.1,2.1,3.2c0.1,0.6,0.2,1.2,0.2,1.8c-1.1-0.1-2.6-0.1-4-0.1c-1.4,0-3.2,0-4.3,0.1c0-0.6,0-1.2,0.2-1.8
		c1.7-0.1,2.1-0.7,2.1-3.2V14.3c0-2.5-0.4-3-2.1-3.2C74.1,10.5,74,9.9,74,9.3c1.1,0.1,2.9,0.1,4.2,0.1c1.4,0,2.8,0,4.1-0.1
		c0,0.6,0,1.2-0.2,1.8c-1.6,0.1-2.1,0.7-2.1,3.2v5.2c1.8,0,2.7-0.8,4.7-4.3c2.9-5.2,3.5-6,5.8-6c0.6,0,1.1,0.1,1.7,0.2
		c-0.1,1.8,0,3.5,0.2,5.3c-0.6,0.2-1.3,0.3-1.9,0.3c-0.3-2.2-0.7-2.6-1.4-2.6c-0.8,0-1.3,0.8-2.9,3.6c-1.6,2.8-2.2,3.5-2.9,3.7
		c2.1,0.2,2.8,1,4,3.6C89.8,29,91.1,30.6,93.7,30.8z"/>
</g>
<g>
	<path class="st1" d="M119.2,9.3c0,0.6-0.1,1.2-0.2,1.8c-1.2,0.3-1.8,1.7-2.9,3.9c-2.1,4.5-3.3,6.9-4.5,9.2
		c-2.3,4.5-3.1,6.3-3.7,8.5c-1.5-0.2-3-0.3-4.5-0.2c-0.1-0.6-0.2-1.1-0.2-1.7c2.1-0.2,3.5-1.2,5.5-5c-2.1-3.9-4.3-7.9-6-11
		s-2.3-3.5-3.4-3.7c-0.1-0.6-0.2-1.2-0.2-1.8c0.9,0.1,2.9,0.1,4.1,0.1c1.2,0,2.8,0,4.1-0.1c0,0.6-0.1,1.2-0.2,1.8
		c-1.9,0.2-1.8,0.7-0.6,2.7c1.6,2.8,2.9,5.2,4.4,8c1.3-2.4,2.4-4.8,3.4-7.3c1-2.2,0.7-3.2-1-3.4c-0.1-0.6-0.2-1.2-0.2-1.8
		c0.8,0.1,1.9,0.1,2.9,0.1S118.4,9.4,119.2,9.3z"/>
</g>
<g>
	<path class="st1" d="M26.5,53H27v2h2.3v-2h0.4v4.4h-0.4v-2H27v2h-0.5V53z"/>
</g>
<g>
	<path class="st1" d="M32.7,56.2c0,0.5-0.4,0.9-0.9,0.9c0,0,0,0,0,0c-0.4,0-0.7-0.2-0.7-0.6c0,0,0,0,0-0.1c0-0.4,0.3-0.7,0.9-0.7
		c0.3,0,0.6,0,0.9,0.1V56.2z M30.5,56.4c0,0.6,0.5,1,1.1,1c0,0,0,0,0,0c0.4,0,0.8-0.2,1.1-0.6v0.5h0.4v-2c0-0.3-0.1-0.7-0.3-1
		c-0.2-0.2-0.6-0.4-0.9-0.4c-0.4,0-0.7,0.1-1.1,0.3l0.1,0.4c0.3-0.2,0.6-0.2,0.9-0.2c0.4,0,0.8,0.3,0.9,0.7c0,0.1,0,0.1,0,0.2v0.1
		c-0.3-0.1-0.6-0.1-0.9-0.1C31.1,55.4,30.5,55.7,30.5,56.4L30.5,56.4z"/>
</g>
<g>
	<path class="st1" d="M36.6,57.4H34v-3.3h0.4V57h1.6v-2.8h0.4V57H37l-0.1,1.2h-0.4L36.6,57.4z"/>
</g>
<g>
	<path class="st1" d="M37.7,54.1h0.4v3.3h-0.4L37.7,54.1z M37.6,52.9h0.5v0.5h-0.5L37.6,52.9z"/>
</g>
<g>
	<path class="st1" d="M41.5,55.8c0.1,0.6-0.4,1.2-1,1.3c0,0,0,0,0,0c-0.6,0-1.1-0.6-1.1-1.3c0,0,0,0,0,0c-0.1-0.6,0.4-1.2,1-1.3
		c0,0,0,0,0,0C41.1,54.5,41.6,55.1,41.5,55.8C41.5,55.8,41.5,55.8,41.5,55.8z M38.9,55.8c-0.1,0.9,0.6,1.7,1.5,1.7c0,0,0,0,0,0
		c0.9,0,1.5-0.7,1.5-1.5c0-0.9-0.7-1.5-1.5-1.5C39.7,54.4,39,55,38.9,55.8z"/>
</g>
<g>
	<path class="st1" d="M42.8,54.1h0.4v1.4h1.7v-1.4h0.4v3.3h-0.4V56h-1.7v1.4h-0.4V54.1z"/>
</g>
<g>
	<path class="st1" d="M48.2,56.2c0,0.5-0.4,0.9-0.9,0.9c0,0,0,0,0,0c-0.4,0-0.7-0.2-0.7-0.6c0,0,0,0,0,0c0-0.4,0.3-0.7,0.9-0.7
		c0.3,0,0.6,0,0.9,0.1C48.2,55.9,48.2,56.2,48.2,56.2z M46.1,56.4c0,0.6,0.5,1,1.1,1c0,0,0,0,0,0c0.4,0,0.8-0.2,1.1-0.6v0.5h0.4v-2
		c0-0.3-0.1-0.7-0.3-1c-0.3-0.2-0.6-0.4-1-0.4c-0.4,0-0.7,0.1-1.1,0.3l0.1,0.4c0.3-0.1,0.6-0.2,0.9-0.2c0.4,0,0.8,0.3,0.9,0.7
		c0,0.1,0,0.1,0,0.2v0.1c-0.3-0.1-0.6-0.1-0.9-0.1C46.6,55.4,46.1,55.7,46.1,56.4L46.1,56.4z"/>
</g>
<g>
	<path class="st1" d="M49.1,57.4l0-0.4c0.1,0,0.1,0,0.2,0c0.4,0,0.6-0.2,0.6-2.6v-0.3h2.1v3.3h-0.4v-2.8h-1.3v0.1
		c0,2.5-0.4,2.8-1,2.8C49.3,57.4,49.2,57.4,49.1,57.4z"/>
</g>
<g>
	<path class="st1" d="M53.5,57v-1.2h0.8c0.4,0,0.7,0.2,0.7,0.6S54.7,57,54.3,57L53.5,57z M53.1,57.4h1.3c0.6,0.1,1.1-0.4,1.1-0.9
		c0,0,0-0.1,0-0.1c0-0.7-0.5-1-1.2-1h-0.8v-1.2h-0.4V57.4z"/>
</g>
<g>
	<path class="st1" d="M56.1,54.1h0.4v1.4h1.7v-1.4h0.4v3.3h-0.4V56h-1.7v1.4h-0.4V54.1z"/>
</g>
<g>
	<path class="st1" d="M61.6,56.2c0,0.5-0.4,0.9-0.9,0.9c0,0,0,0,0,0c-0.4,0-0.7-0.2-0.7-0.6c0,0,0,0,0,0c0-0.4,0.3-0.7,0.9-0.7
		c0.3,0,0.6,0,0.9,0.1L61.6,56.2L61.6,56.2z M59.4,56.4c0,0.6,0.5,1,1.1,1c0,0,0,0,0,0c0.4,0,0.8-0.2,1.1-0.6v0.5H62v-2
		c0-0.3-0.1-0.7-0.3-1c-0.3-0.2-0.6-0.4-0.9-0.4c-0.4,0-0.7,0.1-1.1,0.3l0.1,0.4c0.3-0.1,0.6-0.2,0.9-0.2c0.4,0,0.8,0.3,0.9,0.7
		c0,0.1,0,0.1,0,0.2v0.1c-0.3-0.1-0.6-0.1-0.9-0.1C59.9,55.4,59.4,55.7,59.4,56.4L59.4,56.4z"/>
</g>
<g>
	<path class="st1" d="M66.6,56.2c0,0.5-0.4,0.9-0.9,0.9c0,0,0,0,0,0c-0.4,0-0.7-0.2-0.7-0.6c0,0,0,0,0-0.1c0-0.4,0.3-0.7,0.9-0.7
		c0.3,0,0.6,0,0.9,0.1L66.6,56.2z M64.4,56.4c0,0.6,0.5,1,1.1,1c0,0,0,0,0,0c0.4,0,0.8-0.2,1.1-0.6v0.5H67v-2c0-0.3-0.1-0.7-0.3-1
		c-0.2-0.2-0.6-0.4-0.9-0.4c-0.4,0-0.7,0.1-1.1,0.3l0.1,0.4c0.3-0.2,0.6-0.2,0.9-0.2c0.4,0,0.8,0.3,0.9,0.7c0,0.1,0,0.1,0,0.2v0.1
		c-0.3-0.1-0.6-0.1-0.9-0.1C64.9,55.4,64.4,55.7,64.4,56.4L64.4,56.4z"/>
</g>
<g>
	<path class="st1" d="M67.7,55.8c-0.1-0.9,0.6-1.6,1.5-1.7c0.5,0,0.9,0.2,1.2,0.6L70.1,55c-0.5-0.4-1.2-0.4-1.7,0.1
		s-0.4,1.2,0.1,1.7c0.2,0.2,0.4,0.3,0.7,0.3c0.4,0,0.7-0.2,0.9-0.5l0.3,0.3c-0.3,0.4-0.7,0.6-1.2,0.6C68.4,57.4,67.7,56.7,67.7,55.8
		C67.7,55.8,67.7,55.8,67.7,55.8L67.7,55.8z"/>
</g>
<g>
	<path class="st1" d="M73.3,56.6c-0.2,0.2-0.5,0.4-0.8,0.4c-0.6,0-1.1-0.6-1.1-1.3c0,0,0,0,0,0c-0.1-0.6,0.4-1.2,1-1.3c0,0,0,0,0,0
		c0.7,0,1.1,0.6,1.1,1.3c0,0,0,0,0,0C73.6,56.1,73.5,56.4,73.3,56.6z M72.5,57.5c0.9,0,1.5-0.7,1.6-1.5s-0.7-1.5-1.5-1.6
		c-0.8,0-1.5,0.6-1.5,1.4C70.9,56.7,71.6,57.4,72.5,57.5z"/>
</g>
<g>
	<path class="st1" d="M77.3,57.4h-2.5v-3.3h0.4V57h1.6v-2.8h0.4V57h0.4l-0.1,1.2h-0.4V57.4z"/>
</g>
<g>
	<path class="st1" d="M78.4,54.1h0.4v3.3h-0.4L78.4,54.1z M78.4,52.9h0.5v0.5h-0.5L78.4,52.9z"/>
</g>
<g>
	<path class="st1" d="M81.8,56.2c0,0.5-0.4,0.9-0.9,0.9c0,0,0,0,0,0c-0.4,0-0.7-0.2-0.7-0.6c0,0,0,0,0,0c0-0.4,0.3-0.7,0.9-0.7
		c0.3,0,0.6,0,0.9,0.1L81.8,56.2z M79.6,56.4c0,0.6,0.5,1,1.1,1c0,0,0,0,0,0c0.4,0,0.8-0.2,1.1-0.6v0.5h0.4v-2c0-0.3-0.1-0.7-0.3-1
		c-0.2-0.3-0.6-0.4-0.9-0.4c-0.4,0-0.7,0.1-1.1,0.3l0.1,0.4c0.3-0.1,0.6-0.2,0.9-0.2c0.4,0,0.8,0.3,0.9,0.7c0,0.1,0,0.1,0,0.2v0.1
		c-0.3-0.1-0.6-0.1-0.9-0.1C80.2,55.4,79.6,55.7,79.6,56.4L79.6,56.4z"/>
</g>
<g>
	<path class="st1" d="M85.7,57.4h-2.5v-3.3h0.4V57h1.6v-2.8h0.5V57h0.4l-0.1,1.2h-0.4V57.4z"/>
</g>
<g>
	<path class="st1" d="M86.8,54.1h0.4v3.3h-0.5L86.8,54.1z M86.8,52.9h0.5v0.5h-0.5V52.9z"/>
</g>
<g>
	<path class="st1" d="M89.2,55.8c-0.3,0-0.7-0.2-0.7-0.6c0,0,0-0.1,0-0.1c0-0.4,0.3-0.6,0.7-0.6h0.9v1.2L89.2,55.8z M88,57.4h0.5
		l0.8-1.2h0.8v1.2h0.4v-3.3h-1.4c-0.6,0-1,0.4-1.1,0.9c0,0.5,0.3,0.9,0.8,1.1L88,57.4z"/>
</g>
<g>
	<path class="st1" d="M28.4,63.6c0,0.5-0.4,0.9-0.9,0.9c0,0,0,0,0,0c-0.4,0-0.7-0.2-0.7-0.6c0,0,0,0,0-0.1c0-0.4,0.3-0.7,0.9-0.7
		c0.3,0,0.6,0,0.9,0.1L28.4,63.6L28.4,63.6z M26.2,63.8c0,0.6,0.5,1,1.1,1c0,0,0,0,0,0c0.4,0,0.8-0.2,1.1-0.6v0.5h0.4v-2
		c0-0.3-0.1-0.7-0.3-1c-0.2-0.2-0.6-0.4-0.9-0.4c-0.4,0-0.7,0.1-1.1,0.3l0.1,0.4c0.3-0.2,0.6-0.2,0.9-0.2c0.4,0,0.8,0.3,0.9,0.7
		c0,0.1,0,0.1,0,0.2v0.1c-0.3-0.1-0.6-0.1-0.9-0.1C26.8,62.7,26.2,63.1,26.2,63.8L26.2,63.8z"/>
</g>
<g>
	<path class="st1" d="M31.2,64.4c-0.7-0.1-1.2-0.8-1.1-1.5c0.1-0.5,0.5-1,1.1-1.1c0.6,0,1.1,0.6,1.1,1.2c0,0,0,0,0,0.1
		C32.3,63.9,31.8,64.4,31.2,64.4z M29.7,65.7h0.4v-1.6c0.2,0.4,0.7,0.7,1.1,0.7c0.7,0,1.4-0.6,1.4-1.7s-0.7-1.7-1.4-1.7
		c-0.5,0-0.9,0.3-1.1,0.7v-0.7h-0.4V65.7z"/>
</g>
<g>
	<path class="st1" d="M35.9,63.2c0.1,0.6-0.4,1.2-1,1.2c0,0,0,0,0,0c-0.6,0-1.1-0.6-1.1-1.2c0,0,0,0,0,0c-0.1-0.6,0.4-1.2,1-1.2
		c0,0,0,0,0,0C35.5,62,36,62.5,35.9,63.2C35.9,63.1,35.9,63.1,35.9,63.2L35.9,63.2z M33.4,63c0,1.2,0.6,1.9,1.5,1.8
		c0.9,0,1.5-0.8,1.5-1.6c0,0,0,0,0,0c0.1-0.8-0.6-1.6-1.4-1.6c-0.5,0-1,0.3-1.2,0.7c0-0.5,0.3-1,0.9-1.2l1.6-0.4l-0.1-0.4l-1.6,0.4
		C33.5,60.9,33.4,61.9,33.4,63z"/>
</g>
<g>
	<path class="st1" d="M37.2,61.5h0.4v3.3h-0.4V61.5z M37.2,60.2h0.5v0.5h-0.5V60.2z"/>
</g>
<g>
	<path class="st1" d="M39.4,61.9h-1.1v-0.4h2.5v0.4h-1.1v2.8h-0.4L39.4,61.9z"/>
</g>
<g>
	<path class="st1" d="M43,64.4c-0.7-0.1-1.2-0.8-1.1-1.5c0.1-0.5,0.5-1,1.1-1.1c0.6,0,1.1,0.6,1.1,1.2c0,0,0,0,0,0.1
		C44,63.9,43.5,64.4,43,64.4L43,64.4z M41.5,65.7h0.4v-1.6c0.2,0.4,0.7,0.7,1.1,0.7c0.7,0,1.4-0.6,1.4-1.7s-0.7-1.7-1.4-1.7
		c-0.5,0-0.9,0.3-1.1,0.7v-0.7h-0.4L41.5,65.7z"/>
</g>
<g>
	<path class="st1" d="M46.9,64.2c-0.2,0.2-0.4,0.2-0.7,0.2c-0.4,0-0.7-0.2-0.7-0.6c0,0,0,0,0,0c0-0.4,0.3-0.7,0.9-0.7
		c0.3,0,0.6,0,0.9,0.1v0.3C47.2,63.8,47.1,64,46.9,64.2L46.9,64.2z M45,63.8c0,0.6,0.5,1,1.1,1c0,0,0,0,0,0c0.4,0,0.8-0.2,1.1-0.6
		v0.5h0.4v-2c0-0.3-0.1-0.7-0.3-1c-0.2-0.2-0.6-0.4-0.9-0.4c-0.4,0-0.7,0.1-1.1,0.3l0.1,0.4c0.3-0.2,0.6-0.2,0.9-0.2
		c0.4,0,0.8,0.3,0.9,0.7c0,0.1,0,0.1,0,0.2v0.1c-0.3-0.1-0.6-0.1-0.9-0.1C45.6,62.7,45,63.1,45,63.8L45,63.8z"/>
</g>
<g>
	<path class="st1" d="M49.4,62.9l-1.1-1.4h0.5l1.5,1.9v-1.9h0.4v1.9l1.5-1.9h0.5l-1.1,1.4l1.2,1.9h-0.5l-1-1.5L50.7,64v0.8h-0.4V64
		l-0.6-0.7l-1,1.5h-0.5L49.4,62.9z"/>
</g>
<g>
	<path class="st1" d="M53.4,61.5h0.4v1.4h1.7v-1.4h0.4v3.3h-0.4v-1.4h-1.7v1.4h-0.4V61.5z"/>
</g>
<g>
	<path class="st1" d="M56.9,61.5h0.4v2.6l1.7-2.6h0.4v3.3h-0.4v-2.6l-1.7,2.6h-0.4L56.9,61.5z"/>
</g>
<g>
	<path class="st1" d="M61.4,63.1l-1.1-1.6h0.5l0.9,1.3l0.9-1.3H63l-1.1,1.6l1.2,1.7h-0.5l-0.9-1.3l-0.9,1.3h-0.5L61.4,63.1z"/>
</g>
<g>
	<path class="st1" d="M65.5,61.5h0.4v1.9l1.6-1.9H68l-1.2,1.4l1.3,1.8h-0.5l-1.1-1.5L65.9,64v0.8h-0.4L65.5,61.5z"/>
</g>
<g>
	<path class="st1" d="M68.8,62.9c0.1-0.6,0.4-1.1,1-1.1c0.6,0,0.9,0.5,0.9,1.1H68.8z M68.3,63.1c-0.1,0.9,0.6,1.6,1.4,1.7
		c0,0,0,0,0,0c0.5,0,0.9-0.2,1.2-0.6l-0.3-0.3c-0.2,0.3-0.6,0.5-0.9,0.5c-0.6,0-1.1-0.5-1.1-1.1c0,0,0,0,0,0h2.3v-0.2
		c0-1-0.6-1.7-1.4-1.7S68.3,62.2,68.3,63.1z"/>
</g>
<g>
	<path class="st1" d="M74.4,63.1c0,0.8-0.5,1.3-1.1,1.3c-0.7-0.1-1.2-0.8-1.1-1.5c0.1-0.5,0.5-1,1.1-1.1
		C73.9,61.9,74.4,62.4,74.4,63.1C74.4,63.1,74.4,63.1,74.4,63.1z M71.9,65.8h0.4v-1.6c0.2,0.4,0.6,0.7,1.1,0.7
		c0.7,0,1.4-0.6,1.4-1.7s-0.7-1.7-1.4-1.7c-0.5,0-0.9,0.3-1.1,0.7v-0.7h-0.4V65.8z"/>
</g>
<g>
	<path class="st1" d="M75.3,65.6l0.1-0.4c0.1,0.1,0.3,0.1,0.5,0.1c0.3,0,0.4-0.2,0.6-0.6l-1.3-3.2h0.5l1.1,2.7l0.9-2.7h0.5l-1.2,3.4
		c-0.2,0.7-0.5,0.9-1,0.9C75.7,65.8,75.5,65.7,75.3,65.6z"/>
</g>
<g>
	<path class="st1" d="M81.4,64.4c-0.6,0-1-0.6-1-1.3c0-0.7,0.4-1.3,1-1.3c0.6,0,1,0.6,1,1.3C82.4,63.8,82,64.4,81.4,64.4z
		 M79.9,63.3c0,0.8,0.6,1.5,1.4,1.5c0.9-0.1,1.5-0.8,1.5-1.7c0,0,0,0,0,0c0-0.9-0.6-1.7-1.4-1.7c-0.8,0-1.4,0.7-1.4,1.5h-0.7v-1.4
		h-0.4v3.3h0.4v-1.4L79.9,63.3z"/>
</g>
<g>
	<path class="st1" d="M85.5,63.4c-0.3,0.2-0.6,0.3-1,0.3c-0.5,0-0.9-0.3-1-0.8c0-0.1,0-0.1,0-0.2v-1.2H84v1.2c0,0.3,0.2,0.6,0.5,0.6
		c0,0,0.1,0,0.1,0c0.3,0,0.7-0.1,0.9-0.3v-1.5h0.4v3.3h-0.4L85.5,63.4z"/>
</g>
<g>
	<path class="st1" d="M86.9,61.5h0.4v2.6l1.7-2.6h0.4v3.3h-0.4v-2.6l-1.8,2.6h-0.4L86.9,61.5z"/>
</g>
<g>
	<path class="st1" d="M91.4,63.1l-1.1-1.6h0.5l0.9,1.3l0.9-1.3H93l-1.1,1.6l1.2,1.7h-0.5l-0.9-1.3l-0.9,1.3h-0.5L91.4,63.1z"/>
</g>
<g>
	<path class="st1" d="M26.4,72l0.2-0.4c0.2,0.1,0.3,0.1,0.5,0.1c0.3,0,0.6-0.2,0.8-0.7l-1.8-3.4h0.5l1.5,2.9l1.3-2.9h0.5l-1.6,3.5
		c-0.3,0.7-0.7,1-1.2,1C26.9,72.2,26.6,72.1,26.4,72z"/>
</g>
<g>
	<path class="st1" d="M30.2,68.9h0.4v1.9l1.6-1.9h0.5l-1.2,1.4l1.3,1.8h-0.5l-1.1-1.5l-0.6,0.7v0.8h-0.4L30.2,68.9z"/>
</g>
<g>
	<path class="st1" d="M36,70.5c0,0.8-0.5,1.3-1.1,1.3c-0.7-0.1-1.2-0.8-1-1.5c0.1-0.5,0.5-1,1-1C35.5,69.3,36,69.8,36,70.5
		C36,70.4,36,70.5,36,70.5L36,70.5z M33.5,73.1h0.4v-1.6c0.2,0.4,0.6,0.7,1.1,0.7c0.7,0,1.4-0.6,1.4-1.7c0-1.1-0.7-1.7-1.4-1.7
		c-0.5,0-0.9,0.3-1.1,0.7v-0.7h-0.4V73.1z"/>
</g>
<g>
	<path class="st1" d="M39.2,70.9c0,0.5-0.4,0.9-0.9,0.9c0,0,0,0,0,0c-0.4,0-0.7-0.2-0.7-0.6c0,0,0,0,0,0c0-0.4,0.3-0.7,0.9-0.7
		c0.3,0,0.6,0,0.9,0.1C39.2,70.6,39.2,70.9,39.2,70.9z M37,71.2c0,0.6,0.5,1,1.1,1c0,0,0,0,0,0c0.4,0,0.8-0.2,1.1-0.6v0.5h0.4v-2
		c0-0.3-0.1-0.7-0.3-1c-0.3-0.2-0.6-0.4-1-0.4c-0.4,0-0.7,0.1-1.1,0.3l0.1,0.4c0.3-0.2,0.6-0.2,0.9-0.2c0.4,0,0.8,0.3,0.9,0.7
		c0,0.1,0,0.1,0,0.2v0.1c-0.3-0.1-0.6-0.1-0.9-0.1C37.5,70.1,37,70.5,37,71.2L37,71.2z"/>
</g>
<g>
	<path class="st1" d="M41,67.8h0.5v0.6H41V67.8z M40.5,68.9H41v3.3h-0.4L40.5,68.9z M40,67.8h0.5v0.6H40V67.8z"/>
</g>
<g>
	<path class="st1" d="M42,68.9h0.4v1.4h1.7v-1.4h0.4v3.3h-0.4v-1.4h-1.7v1.4H42L42,68.9z"/>
</g>
<g>
	<path class="st1" d="M45.5,68.9H46v2.6l1.7-2.6h0.4v3.3h-0.4v-2.6L46,72.1h-0.4L45.5,68.9z"/>
</g>
</svg>
