<?xml version="1.0" encoding="utf-8"?>
<!-- Generator: Adobe Illustrator 24.0.0, SVG Export Plug-In . SVG Version: 6.00 Build 0)  -->
<svg version="1.1" id="Слой_1" xmlns="http://www.w3.org/2000/svg" xmlns:xlink="http://www.w3.org/1999/xlink" x="0px" y="0px"
	 viewBox="0 0 92 61" style="enable-background:new 0 0 92 61;" xml:space="preserve">
<style type="text/css">
	.st0{fill:#EFBA4B;}
	.st1{fill:#098E5B;}
</style>
<g>
	<g>
		<g>
			<g>
				<path class="st0" d="M18.3,60.6V0.1h55.4v60.5H18.3z"/>
			</g>
			<g>
				<path class="st1" d="M18.3,60.6v-2.2h55.4v2.2H18.3z"/>
			</g>
			<g>
				<path class="st1" d="M14.6,21.1c0,2,0.4,2.4,1.6,2.5c0.1,0.5,0.1,0.9,0.1,1.4c-1-0.1-2-0.1-3.1-0.1c-1.1,0-2.4,0-3.3,0.1
					c0-0.5,0-0.9,0.1-1.4c1.3-0.1,1.6-0.5,1.6-2.5v-4.7c-1.8,0-4.6,0-6.4,0.1v4.6c0,2,0.4,2.4,1.6,2.5C7,24,7,24.5,7,24.9
					c-1-0.1-2-0.1-3.1-0.1c-1.1,0-2.4,0-3.3,0.1c0-0.5,0-0.9,0.1-1.4C2,23.4,2.4,23,2.4,21V10.8c0-1.9-0.3-2.3-1.6-2.4
					C0.7,7.9,0.6,7.4,0.6,7C1.5,7,2.8,7,3.8,7S6,7,7,7c0,0.5,0,0.9-0.1,1.4c-1.2,0.1-1.6,0.5-1.6,2.5V15h6.5v-4.2
					c0-1.9-0.3-2.3-1.6-2.4C10,7.9,9.9,7.4,9.9,7C10.8,7,12.1,7,13.1,7s2.2,0,3.1-0.1c0,0.5,0,0.9-0.1,1.4c-1.2,0.1-1.6,0.5-1.6,2.5
					L14.6,21.1z"/>
			</g>
			<g>
				<path class="st1" d="M29.4,18.1h-4.9l1.4-4c0.4-1,0.7-2.1,1-3.1c0.3,1.1,0.7,2.1,1.1,3.1L29.4,18.1z M35.7,24.9
					c0-0.5,0-0.9-0.2-1.4c-0.7-0.1-1-0.5-1.9-2.7l-5.5-14c-0.4,0-0.8,0-1.2,0.1l-4.9,13.8c-0.8,2.1-1.1,2.6-1.9,2.8
					c-0.1,0.4-0.2,0.9-0.2,1.4c0.4,0,1.3-0.1,2-0.1c0.8,0,1.8,0,2.4,0.1c0-0.5-0.1-0.9-0.2-1.4c-1.2-0.1-1.4-0.9-0.8-2.6l0.5-1.4
					c1.9-0.1,4-0.1,6-0.1l0.8,2.1c0.6,1.5,0.4,1.8-0.8,2c-0.1,0.5-0.2,0.9-0.2,1.4c0.6-0.1,2.3-0.1,3.1-0.1
					C33.5,24.8,35.1,24.9,35.7,24.9z"/>
			</g>
			<g>
				<path class="st1" d="M47.7,18.1h-4.9l1.4-4c0.4-1,0.7-2,1-3.1c0.3,1.1,0.7,2.1,1.1,3.1L47.7,18.1z M54,24.9c0-0.5,0-0.9-0.2-1.4
					c-0.7-0.1-1-0.5-1.9-2.7l-5.5-14c-0.4,0-0.8,0-1.2,0.1l-4.9,13.8c-0.7,2.1-1.1,2.6-1.9,2.8c-0.1,0.4-0.2,0.9-0.2,1.4
					c0.4,0,1.3-0.1,2-0.1s1.8,0,2.4,0.1c0-0.5-0.1-0.9-0.2-1.4c-1.2-0.1-1.4-0.9-0.8-2.6l0.5-1.4c1.9-0.1,4-0.1,6-0.1l0.8,2.1
					c0.6,1.5,0.4,1.8-0.8,2C48,24,48,24.5,48,24.9c0.6-0.1,2.3-0.1,3.1-0.1C51.8,24.8,53.4,24.9,54,24.9L54,24.9z"/>
			</g>
			<g>
				<path class="st1" d="M71.9,23.5c0,0.4,0,0.9-0.2,1.3c-1.3,0-2.5,0-3.8,0.2c-1.1-1-2.1-2.4-3.4-5.8c-0.8-2.1-1.5-3-3-3v4.8
					c0,2,0.4,2.4,1.6,2.5c0.1,0.5,0.1,0.9,0.1,1.4c-1-0.1-2.1-0.1-3.1-0.1c-1.1,0-2.2,0-3.3,0.1c0-0.5,0-0.9,0.1-1.4
					c1.3-0.1,1.6-0.5,1.6-2.5V10.8c0-1.9-0.3-2.3-1.6-2.4C57,7.9,56.9,7.4,57,7C57.8,7,59.1,7,60.2,7c1,0,2.2,0,3.1-0.1
					c0,0.5,0,0.9-0.1,1.4c-1.2,0.1-1.6,0.5-1.6,2.5v4c1.4,0,2.1-0.6,3.6-3.3c2.2-4,2.7-4.7,4.4-4.7c0.4,0,0.9,0.1,1.3,0.2
					c-0.1,1.4,0,2.7,0.1,4.1c-0.5,0.2-1,0.3-1.5,0.2c-0.3-1.7-0.6-2-1.1-2c-0.6,0-1,0.6-2.2,2.8c-1.2,2.2-1.6,2.7-2.2,2.9
					c1.6,0.2,2.1,0.7,3.1,2.8C69,22.2,69.9,23.4,71.9,23.5z"/>
			</g>
			<g>
				<path class="st1" d="M91.4,7c0,0.5,0,0.9-0.1,1.4c-0.9,0.2-1.4,1.3-2.2,3c-1.6,3.5-2.5,5.3-3.4,7.1c-1.8,3.5-2.3,4.8-2.8,6.6
					c-1.1-0.1-2.3-0.2-3.5-0.2c-0.1-0.4-0.2-0.9-0.1-1.3c1.6-0.1,2.6-0.9,4.2-3.8c-1.6-3-3.3-6.1-4.6-8.5s-1.7-2.7-2.6-2.8
					c-0.1-0.5-0.2-0.9-0.1-1.4c0.7,0.1,2.2,0.1,3.1,0.1c0.9,0,2.1,0,3.2-0.1c0,0.5,0,0.9-0.1,1.4c-1.4,0.1-1.4,0.5-0.4,2.1
					c1.2,2.2,2.2,4,3.3,6.1c1-1.8,1.8-3.7,2.6-5.6c0.8-1.7,0.6-2.5-0.8-2.6c-0.1-0.5-0.2-0.9-0.1-1.4C87.4,7,88.2,7.1,89,7.1
					C89.8,7.1,90.8,7,91.4,7L91.4,7z"/>
			</g>
			<g>
				<path class="st1" d="M20.8,40.6h0.3v1.5h1.7v-1.5h0.3V44h-0.3v-1.5h-1.7V44h-0.3V40.6z"/>
			</g>
			<g>
				<path class="st1" d="M25.5,43.1c0,0.2-0.1,0.4-0.2,0.5c-0.1,0.1-0.3,0.2-0.5,0.2c-0.1,0-0.3,0-0.4-0.1c-0.1-0.1-0.2-0.2-0.2-0.4
					c0-0.3,0.3-0.5,0.7-0.5c0.2,0,0.4,0,0.7,0.1C25.5,42.9,25.5,43.1,25.5,43.1z M24.1,43.9c0.2,0.2,0.4,0.2,0.6,0.2
					c0.3,0,0.6-0.2,0.8-0.4V44h0.3v-1.5c0-0.3-0.1-0.5-0.2-0.7c-0.2-0.2-0.5-0.3-0.7-0.3c-0.3,0-0.6,0.1-0.8,0.2l0.1,0.3
					c0.2-0.1,0.4-0.2,0.7-0.2c0.2,0,0.4,0,0.5,0.2c0.1,0.1,0.2,0.3,0.2,0.5v0.1c-0.2-0.1-0.4-0.1-0.7-0.1c-0.6,0-1,0.3-1,0.8
					C23.9,43.5,24,43.7,24.1,43.9z"/>
			</g>
			<g>
				<path class="st1" d="M28.5,44h-1.9v-2.5h0.3v2.2h1.3v-2.2h0.3v2.2h0.3l-0.1,1h-0.3L28.5,44z"/>
			</g>
			<g>
				<path class="st1" d="M29.3,41.5h0.3V44h-0.3V41.5z M29.3,40.6h0.4V41h-0.4V40.6z"/>
			</g>
			<g>
				<path class="st1" d="M32,43.4c-0.2,0.2-0.4,0.3-0.6,0.3c-0.2,0-0.5-0.1-0.6-0.3c-0.2-0.2-0.2-0.4-0.2-0.7c0-0.2,0-0.5,0.2-0.7
					c0.1-0.2,0.4-0.3,0.6-0.3c0.2,0,0.5,0.1,0.6,0.3c0.2,0.2,0.2,0.4,0.2,0.7C32.3,43,32.2,43.3,32,43.4L32,43.4z M30.6,43.7
					c0.2,0.2,0.5,0.4,0.8,0.4c0.6,0,1.2-0.5,1.2-1.1c0-0.6-0.5-1.2-1.1-1.2c-0.6,0-1.2,0.4-1.3,1.1C30.2,43.1,30.3,43.4,30.6,43.7
					L30.6,43.7z"/>
			</g>
			<g>
				<path class="st1" d="M33.2,41.5h0.3v1.1h1.3v-1.1h0.3V44h-0.3v-1.1h-1.3V44h-0.3V41.5z"/>
			</g>
			<g>
				<path class="st1" d="M37.1,43.6c-0.1,0.1-0.3,0.2-0.5,0.2c-0.1,0-0.3,0-0.4-0.1c-0.1-0.1-0.2-0.2-0.2-0.4c0-0.3,0.3-0.5,0.7-0.5
					c0.2,0,0.4,0,0.7,0.1v0.2C37.3,43.3,37.3,43.5,37.1,43.6z M35.7,43.3c0,0.2,0.1,0.4,0.2,0.6c0.2,0.2,0.4,0.2,0.6,0.2
					c0.3,0,0.6-0.2,0.8-0.4V44h0.3v-1.5c0-0.3-0.1-0.5-0.2-0.7c-0.2-0.2-0.5-0.3-0.7-0.3c-0.3,0-0.6,0.1-0.8,0.2L36,42
					c0.2-0.1,0.4-0.2,0.7-0.2c0.2,0,0.4,0,0.5,0.2c0.1,0.1,0.2,0.3,0.2,0.5v0.1c-0.2-0.1-0.5-0.1-0.7-0.1
					C36.1,42.5,35.7,42.8,35.7,43.3z"/>
			</g>
			<g>
				<path class="st1" d="M38,44l0-0.3c0.1,0,0.1,0,0.2,0c0.3,0,0.5-0.1,0.5-2v-0.2h1.6V44H40v-2.2h-1v0.1c0,2-0.3,2.2-0.7,2.2
					C38.2,44.1,38.1,44.1,38,44L38,44z"/>
			</g>
			<g>
				<path class="st1" d="M41.3,43.7v-0.9h0.6c0.3,0,0.5,0.1,0.5,0.4c0,0.3-0.2,0.5-0.5,0.5L41.3,43.7z M41,44h1
					c0.2,0,0.4-0.1,0.6-0.2c0.2-0.2,0.2-0.4,0.2-0.6c0-0.5-0.4-0.8-0.9-0.8h-0.6v-0.9H41V44z"/>
			</g>
			<g>
				<path class="st1" d="M43.3,41.5h0.3v1.1H45v-1.1h0.3V44H45v-1.1h-1.3V44h-0.3L43.3,41.5z"/>
			</g>
			<g>
				<path class="st1" d="M47.5,43.1c0,0.2-0.1,0.4-0.2,0.5c-0.1,0.1-0.3,0.2-0.5,0.2c-0.1,0-0.3,0-0.4-0.1c-0.1-0.1-0.2-0.2-0.2-0.4
					c0-0.3,0.3-0.5,0.7-0.5c0.2,0,0.4,0,0.7,0.1L47.5,43.1L47.5,43.1z M45.8,43.3c0,0.2,0.1,0.4,0.2,0.6c0.2,0.2,0.4,0.2,0.6,0.2
					c0.3,0,0.6-0.2,0.8-0.4V44h0.3v-1.5c0-0.3-0.1-0.5-0.2-0.7c-0.2-0.2-0.5-0.3-0.7-0.3c-0.3,0-0.6,0.1-0.8,0.2l0.1,0.3
					c0.2-0.1,0.4-0.2,0.7-0.2c0.2,0,0.4,0,0.5,0.2c0.1,0.1,0.2,0.3,0.2,0.5v0.1c-0.2-0.1-0.4-0.1-0.7-0.1
					C46.2,42.5,45.8,42.8,45.8,43.3z"/>
			</g>
			<g>
				<path class="st1" d="M51.3,43.1c0,0.2-0.1,0.4-0.2,0.5c-0.1,0.1-0.3,0.2-0.5,0.2c-0.1,0-0.3,0-0.4-0.1c-0.1-0.1-0.2-0.2-0.2-0.4
					c0-0.3,0.3-0.5,0.7-0.5c0.2,0,0.4,0,0.7,0.1L51.3,43.1z M49.6,43.3c0,0.2,0.1,0.4,0.2,0.6c0.2,0.2,0.4,0.2,0.6,0.2
					c0.3,0,0.6-0.2,0.8-0.4V44h0.3v-1.5c0-0.3-0.1-0.5-0.2-0.7c-0.2-0.2-0.5-0.3-0.7-0.3c-0.3,0-0.6,0.1-0.8,0.2l0.1,0.3
					c0.2-0.1,0.4-0.2,0.7-0.2c0.2,0,0.4,0,0.5,0.2c0.1,0.1,0.2,0.3,0.2,0.5v0.1c-0.2-0.1-0.4-0.1-0.7-0.1
					C50,42.5,49.6,42.8,49.6,43.3z"/>
			</g>
			<g>
				<path class="st1" d="M52.2,42.8c0-0.7,0.5-1.3,1.1-1.3c0.4,0,0.7,0.2,0.9,0.5L54,42.2c-0.3-0.3-0.7-0.3-1.1-0.1
					c-0.3,0.2-0.5,0.6-0.4,1c0.1,0.4,0.4,0.7,0.8,0.7c0.3,0,0.5-0.2,0.7-0.4l0.2,0.2c-0.2,0.3-0.5,0.5-0.9,0.5
					c-0.3,0-0.6-0.2-0.8-0.4C52.3,43.4,52.2,43.1,52.2,42.8z"/>
			</g>
			<g>
				<path class="st1" d="M56.5,43.4c-0.2,0.2-0.4,0.3-0.6,0.3c-0.2,0-0.5-0.1-0.6-0.3C55.1,43.3,55,43,55,42.8c0-0.2,0-0.5,0.2-0.7
					c0.2-0.2,0.4-0.3,0.6-0.3c0.2,0,0.5,0.1,0.6,0.3c0.2,0.2,0.2,0.4,0.2,0.7C56.7,43,56.6,43.3,56.5,43.4L56.5,43.4z M54.7,42.8
					c0,0.7,0.5,1.3,1.2,1.3c0.6,0,1.2-0.5,1.2-1.1c0-0.6-0.5-1.2-1.1-1.2C55.3,41.7,54.7,42.1,54.7,42.8z"/>
			</g>
			<g>
				<path class="st1" d="M59.5,44h-1.9v-2.5h0.3v2.2h1.3v-2.2h0.3v2.2h0.3l-0.1,1h-0.3V44z"/>
			</g>
			<g>
				<path class="st1" d="M60.3,41.5h0.3V44h-0.3L60.3,41.5z M60.3,40.6h0.4V41h-0.4L60.3,40.6z"/>
			</g>
			<g>
				<path class="st1" d="M62.9,43.1c0,0.2-0.1,0.4-0.2,0.5c-0.1,0.1-0.3,0.2-0.5,0.2c-0.1,0-0.3,0-0.4-0.1c-0.1-0.1-0.2-0.2-0.2-0.4
					c0-0.3,0.3-0.5,0.7-0.5c0.2,0,0.4,0,0.7,0.1V43.1z M61.3,43.3c0,0.2,0.1,0.4,0.2,0.6c0.2,0.2,0.4,0.2,0.6,0.2
					c0.3,0,0.6-0.2,0.8-0.4V44h0.3v-1.5c0-0.3-0.1-0.5-0.2-0.7c-0.2-0.2-0.5-0.3-0.7-0.3c-0.3,0-0.6,0.1-0.8,0.2l0.1,0.3
					c0.2-0.1,0.4-0.2,0.7-0.2c0.2,0,0.4,0,0.5,0.2c0.1,0.1,0.2,0.3,0.2,0.5v0.1c-0.2-0.1-0.5-0.1-0.7-0.1
					C61.7,42.5,61.3,42.8,61.3,43.3z"/>
			</g>
			<g>
				<path class="st1" d="M65.9,44h-1.9v-2.5h0.3v2.2h1.3v-2.2h0.3v2.2h0.3l-0.1,1h-0.3V44z"/>
			</g>
			<g>
				<path class="st1" d="M66.7,41.5H67V44h-0.4L66.7,41.5z M66.7,40.6h0.4V41h-0.4V40.6z"/>
			</g>
			<g>
				<path class="st1" d="M68.5,42.8c-0.1,0-0.3,0-0.4-0.1C68,42.6,68,42.5,68,42.3c0-0.3,0.2-0.5,0.5-0.5h0.7v1L68.5,42.8z M67.6,44
					H68l0.6-0.9h0.6V44h0.3v-2.5h-1c-0.4,0-0.8,0.3-0.8,0.7c-0.1,0.4,0.2,0.8,0.6,0.9L67.6,44z"/>
			</g>
			<g>
				<path class="st1" d="M22.2,48.8c0,0.2-0.1,0.4-0.2,0.5c-0.1,0.1-0.3,0.2-0.5,0.2c-0.1,0-0.3,0-0.4-0.1c-0.1-0.1-0.2-0.2-0.2-0.4
					c0-0.3,0.3-0.5,0.7-0.5c0.2,0,0.4,0,0.7,0.1L22.2,48.8L22.2,48.8z M20.8,49.5c0.2,0.2,0.4,0.2,0.6,0.2c0.3,0,0.6-0.2,0.8-0.4
					v0.4h0.3v-1.5c0-0.3-0.1-0.5-0.2-0.7c-0.2-0.2-0.5-0.3-0.7-0.3c-0.3,0-0.6,0.1-0.8,0.2l0.1,0.3c0.2-0.1,0.4-0.2,0.7-0.2
					c0.2,0,0.4,0,0.5,0.2c0.1,0.1,0.2,0.3,0.2,0.5v0.1c-0.2-0.1-0.5-0.1-0.7-0.1c-0.6,0-1,0.3-1,0.8C20.6,49.2,20.7,49.4,20.8,49.5z
					"/>
			</g>
			<g>
				<path class="st1" d="M24.4,49.4c-0.5-0.1-0.8-0.5-0.8-1c0-0.5,0.3-0.9,0.8-1c0.2,0,0.5,0.1,0.6,0.3c0.2,0.2,0.2,0.4,0.2,0.7
					C25.2,49.1,24.8,49.4,24.4,49.4z M23.3,50.5h0.3v-1.3c0.2,0.3,0.5,0.5,0.9,0.5c0.5,0,1.1-0.5,1.1-1.3c0-0.8-0.5-1.3-1.1-1.3
					c-0.4,0-0.7,0.2-0.9,0.6v-0.5h-0.3V50.5z"/>
			</g>
			<g>
				<path class="st1" d="M28,48.5c0,0.2-0.1,0.5-0.2,0.6c-0.2,0.2-0.4,0.3-0.6,0.3c-0.2,0-0.4-0.1-0.6-0.3c-0.2-0.2-0.2-0.4-0.2-0.6
					c0-0.2,0.1-0.5,0.2-0.6c0.1-0.2,0.4-0.3,0.6-0.3c0.2,0,0.4,0.1,0.6,0.3C27.9,48,28,48.2,28,48.5L28,48.5z M26,48.3
					c0,0.9,0.5,1.4,1.1,1.4c0.3,0,0.6-0.2,0.8-0.4c0.2-0.2,0.3-0.6,0.3-0.9c0-0.6-0.4-1.2-1.1-1.2c-0.4,0-0.7,0.2-0.9,0.5
					c0-0.4,0.2-0.8,0.7-0.9l1.2-0.3l-0.1-0.3l-1.2,0.3C26.1,46.7,26,47.5,26,48.3L26,48.3z"/>
			</g>
			<g>
				<path class="st1" d="M29,47.2h0.3v2.5h-0.3L29,47.2z M28.9,46.2h0.4v0.4h-0.4V46.2z"/>
			</g>
			<g>
				<path class="st1" d="M30.6,47.5h-0.8v-0.3h1.9v0.3h-0.8v2.2h-0.3L30.6,47.5z"/>
			</g>
			<g>
				<path class="st1" d="M33.3,49.4c-0.5-0.1-0.8-0.5-0.8-1c0-0.5,0.3-0.9,0.8-1c0.2,0,0.5,0.1,0.6,0.3c0.2,0.2,0.2,0.4,0.2,0.7
					C34.1,49.1,33.8,49.4,33.3,49.4z M32.2,50.5h0.3v-1.3c0.2,0.3,0.5,0.5,0.9,0.5c0.5,0,1.1-0.5,1.1-1.3c0-0.8-0.5-1.3-1.1-1.3
					c-0.4,0-0.7,0.2-0.9,0.6v-0.5h-0.3V50.5z"/>
			</g>
			<g>
				<path class="st1" d="M36.3,49.3c-0.1,0.1-0.3,0.2-0.5,0.2c-0.1,0-0.3,0-0.4-0.1c-0.1-0.1-0.2-0.2-0.2-0.4c0-0.3,0.2-0.5,0.6-0.5
					c0.2,0,0.4,0,0.7,0.1v0.2C36.5,49,36.5,49.1,36.3,49.3z M34.9,49c0,0.2,0.1,0.4,0.2,0.6c0.2,0.2,0.4,0.2,0.6,0.2
					c0.3,0,0.6-0.2,0.8-0.4v0.4h0.3v-1.5c0-0.3-0.1-0.5-0.2-0.7c-0.2-0.2-0.5-0.3-0.7-0.3c-0.3,0-0.6,0.1-0.8,0.2l0.1,0.3
					c0.2-0.1,0.4-0.2,0.7-0.2c0.2,0,0.4,0,0.5,0.2c0.1,0.1,0.2,0.3,0.2,0.5v0.1c-0.2-0.1-0.4-0.1-0.7-0.1
					C35.3,48.2,34.9,48.4,34.9,49z"/>
			</g>
			<g>
				<path class="st1" d="M38.2,48.3l-0.9-1.1h0.4l1.1,1.5v-1.5h0.3v1.5l1.1-1.5h0.4l-0.9,1.1l0.9,1.4h-0.4l-0.7-1.2l-0.5,0.6v0.6
					h-0.3v-0.6l-0.5-0.6l-0.7,1.2h-0.4L38.2,48.3z"/>
			</g>
			<g>
				<path class="st1" d="M41.3,47.2h0.3v1.1h1.3v-1.1h0.3v2.5h-0.3v-1.1h-1.3v1.1h-0.3V47.2z"/>
			</g>
			<g>
				<path class="st1" d="M43.9,47.2h0.3v2l1.3-2h0.3v2.5h-0.3v-2l-1.3,2h-0.3L43.9,47.2z"/>
			</g>
			<g>
				<path class="st1" d="M47.3,48.4l-0.8-1.2h0.4l0.7,1l0.7-1h0.4l-0.8,1.2l0.9,1.3h-0.4l-0.7-1l-0.7,1h-0.4L47.3,48.4z"/>
			</g>
			<g>
				<path class="st1" d="M50.4,47.2h0.3v1.4l1.2-1.4h0.4l-0.9,1.1l1,1.4H52l-0.8-1.2l-0.5,0.5v0.6h-0.3L50.4,47.2z"/>
			</g>
			<g>
				<path class="st1" d="M53,48.3c0-0.5,0.3-0.8,0.7-0.8c0.4,0,0.7,0.4,0.7,0.8H53z M52.6,48.4c0,0.3,0.1,0.7,0.3,0.9
					c0.2,0.2,0.5,0.4,0.8,0.4c0.4,0,0.7-0.2,0.9-0.5l-0.2-0.2c-0.2,0.2-0.4,0.4-0.7,0.4c-0.2,0-0.4-0.1-0.6-0.2
					C53,49,53,48.8,53,48.6h1.8v-0.1c0-0.7-0.4-1.3-1-1.3C53.1,47.1,52.6,47.7,52.6,48.4z"/>
			</g>
			<g>
				<path class="st1" d="M57.2,48.4c0,0.6-0.4,1-0.8,1c-0.5-0.1-0.8-0.5-0.8-1c0-0.5,0.3-0.9,0.8-1c0.2,0,0.5,0.1,0.6,0.3
					C57.2,48,57.3,48.2,57.2,48.4L57.2,48.4z M55.3,50.5h0.3v-1.3c0.2,0.3,0.5,0.5,0.9,0.5c0.5,0,1.1-0.5,1.1-1.3
					c0-0.8-0.5-1.3-1.1-1.3c-0.4,0-0.7,0.2-0.9,0.6v-0.5h-0.3V50.5z"/>
			</g>
			<g>
				<path class="st1" d="M58,50.4l0.1-0.3c0.1,0.1,0.2,0.1,0.3,0.1c0.2,0,0.3-0.1,0.5-0.5l-1-2.5h0.4l0.8,2.1l0.7-2.1h0.4l-0.9,2.6
					c-0.2,0.5-0.4,0.7-0.7,0.7C58.3,50.5,58.1,50.4,58,50.4z"/>
			</g>
			<g>
				<path class="st1" d="M63.3,48.4c0,0.5-0.3,1-0.8,1c-0.5,0-0.8-0.4-0.8-1c0-0.5,0.3-1,0.8-1C63,47.5,63.3,47.9,63.3,48.4z
					 M61.5,48.6c0,0.6,0.5,1.1,1.1,1.1c0.3,0,0.6-0.2,0.8-0.4c0.2-0.2,0.3-0.6,0.3-0.9c0-0.7-0.4-1.3-1.1-1.3
					c-0.6,0-1.1,0.5-1.1,1.2H61v-1.1h-0.3v2.5H61v-1.1H61.5z"/>
			</g>
			<g>
				<path class="st1" d="M65.7,48.7c-0.2,0.1-0.5,0.2-0.7,0.2c-0.2,0-0.4-0.1-0.5-0.2c-0.1-0.1-0.2-0.3-0.2-0.6v-1h0.3v0.9
					c0,0.1,0,0.3,0.1,0.3c0.1,0.1,0.2,0.1,0.3,0.1c0.3,0,0.5-0.1,0.7-0.2v-1.1H66v2.5h-0.3V48.7z"/>
			</g>
			<g>
				<path class="st1" d="M66.8,47.2h0.3v2l1.3-2h0.3v2.5h-0.3v-2l-1.3,2h-0.3V47.2z"/>
			</g>
			<g>
				<path class="st1" d="M70.2,48.4l-0.8-1.2h0.4l0.7,1l0.7-1h0.4l-0.8,1.2l0.9,1.3h-0.4l-0.7-1l-0.7,1h-0.4L70.2,48.4z"/>
			</g>
			<g>
				<path class="st1" d="M20.8,55.3l0.1-0.3c0.1,0.1,0.3,0.1,0.4,0.1c0.2,0,0.4-0.1,0.6-0.5L20.5,52h0.4l1.1,2.2l1-2.2h0.4l-1.2,2.7
					c-0.2,0.6-0.6,0.8-0.9,0.8C21.1,55.4,20.9,55.4,20.8,55.3L20.8,55.3z"/>
			</g>
			<g>
				<path class="st1" d="M23.6,52.9H24v1.4l1.2-1.4h0.4L24.7,54l1,1.4h-0.4l-0.8-1.2L24,54.8v0.6h-0.3L23.6,52.9z"/>
			</g>
			<g>
				<path class="st1" d="M27.2,55.1c-0.5-0.1-0.8-0.5-0.8-1c0-0.5,0.3-0.9,0.8-1c0.2,0,0.5,0.1,0.6,0.3c0.2,0.2,0.2,0.4,0.2,0.7
					C28,54.7,27.7,55.1,27.2,55.1z M26.1,56.1h0.3v-1.3c0.2,0.3,0.5,0.5,0.9,0.5c0.5,0,1.1-0.5,1.1-1.3c0-0.8-0.5-1.3-1.1-1.3
					c-0.4,0-0.7,0.2-0.9,0.6v-0.5h-0.3V56.1z"/>
			</g>
			<g>
				<path class="st1" d="M30.2,55c-0.1,0.1-0.3,0.2-0.5,0.2c-0.1,0-0.3,0-0.4-0.1c-0.1-0.1-0.2-0.2-0.2-0.4c0-0.3,0.3-0.5,0.7-0.5
					c0.2,0,0.4,0,0.7,0.1v0.2C30.4,54.6,30.3,54.8,30.2,55L30.2,55z M28.8,54.6c0,0.2,0.1,0.4,0.2,0.6c0.2,0.2,0.4,0.2,0.6,0.2
					c0.3,0,0.6-0.2,0.8-0.4v0.4h0.3v-1.5c0-0.3-0.1-0.5-0.2-0.7c-0.2-0.2-0.5-0.3-0.7-0.3c-0.3,0-0.6,0.1-0.8,0.2l0.1,0.3
					c0.2-0.1,0.4-0.2,0.7-0.2c0.2,0,0.4,0,0.5,0.2c0.1,0.1,0.2,0.3,0.2,0.5v0.1c-0.2-0.1-0.5-0.1-0.7-0.1
					C29.2,53.8,28.8,54.1,28.8,54.6z"/>
			</g>
			<g>
				<path class="st1" d="M31.8,52h0.4v0.5h-0.4L31.8,52z M31.5,52.9h0.4v2.5h-0.3L31.5,52.9z M31.1,52h0.4v0.5h-0.4V52z"/>
			</g>
			<g>
				<path class="st1" d="M32.6,52.9h0.3v1.1h1.3v-1.1h0.3v2.5h-0.3v-1.1h-1.3v1.1h-0.3V52.9z"/>
			</g>
			<g>
				<path class="st1" d="M35.3,52.9h0.3v2l1.3-2h0.3v2.5h-0.3v-2l-1.3,2h-0.3V52.9z"/>
			</g>
		</g>
	</g>
</g>
</svg>
